<svg xmlns="http://www.w3.org/2000/svg" width="26" height="26"><path fill="none" d="M868 2062h9.591a2 2 0 0 1 2 2v9.54a2 2 0 0 1-2 2H868a2 2 0 0 1-2-2V2064a2 2 0 0 1 2-2Z" data-name="長方形 913" style="fill:#fff;fill-opacity:0;stroke-linejoin:round;stroke-width:2px;fill-rule:evenodd;stroke:#19376b" transform="translate(-863 -2059)"/><path fill="none" d="M874.409 2068.46H884a2 2 0 0 1 2 2v9.54a2 2 0 0 1-2 2h-9.591a2 2 0 0 1-2-2v-9.54a2 2 0 0 1 2-2Z" data-name="長方形 913 のコピー" style="fill:#fff;fill-opacity:0;stroke-linejoin:round;stroke-width:2px;fill-rule:evenodd;stroke:#1184de" transform="translate(-863 -2059)"/></svg>