<svg xmlns="http://www.w3.org/2000/svg" width="1200" height="720" viewBox="0 0 1200 720" role="img" aria-label="WordPress website preview">
  <rect width="1200" height="720" fill="#f7f4ee"/>
  <rect x="84" y="68" width="1032" height="584" rx="22" fill="#ffffff"/>
  <rect x="84" y="68" width="1032" height="92" rx="22" fill="#315d4f"/>
  <rect x="132" y="104" width="210" height="22" rx="11" fill="#f7f4ee"/>
  <rect x="760" y="106" width="78" height="16" rx="8" fill="#d8e1da"/>
  <rect x="866" y="106" width="78" height="16" rx="8" fill="#d8e1da"/>
  <rect x="972" y="100" width="96" height="28" rx="14" fill="#b9975b"/>
  <rect x="140" y="220" width="420" height="36" rx="18" fill="#315d4f"/>
  <rect x="140" y="284" width="520" height="18" rx="9" fill="#8ca097"/>
  <rect x="140" y="318" width="460" height="18" rx="9" fill="#b4c0b8"/>
  <rect x="710" y="218" width="300" height="220" rx="20" fill="#e2ebdf"/>
  <rect x="140" y="500" width="250" height="88" rx="14" fill="#f0efe8"/>
  <rect x="474" y="500" width="250" height="88" rx="14" fill="#f0efe8"/>
  <rect x="808" y="500" width="250" height="88" rx="14" fill="#f0efe8"/>
</svg>
