<svg xmlns="http://www.w3.org/2000/svg" width="1200" height="720" viewBox="0 0 1200 720" role="img" aria-label="Corporate website preview">
  <rect width="1200" height="720" fill="#f4f7f2"/>
  <rect x="80" y="72" width="1040" height="72" rx="10" fill="#ffffff"/>
  <rect x="112" y="98" width="190" height="20" rx="10" fill="#315d4f"/>
  <rect x="796" y="98" width="72" height="16" rx="8" fill="#b9c8bf"/>
  <rect x="892" y="98" width="72" height="16" rx="8" fill="#b9c8bf"/>
  <rect x="988" y="94" width="88" height="24" rx="12" fill="#b9975b"/>
  <rect x="80" y="184" width="1040" height="280" rx="18" fill="#dfe9e2"/>
  <rect x="140" y="244" width="430" height="32" rx="16" fill="#315d4f"/>
  <rect x="140" y="298" width="520" height="18" rx="9" fill="#74877b"/>
  <rect x="140" y="332" width="420" height="18" rx="9" fill="#9aaca1"/>
  <rect x="760" y="232" width="260" height="180" rx="18" fill="#ffffff" opacity=".82"/>
  <rect x="80" y="504" width="316" height="136" rx="16" fill="#ffffff"/>
  <rect x="442" y="504" width="316" height="136" rx="16" fill="#ffffff"/>
  <rect x="804" y="504" width="316" height="136" rx="16" fill="#ffffff"/>
</svg>
